<?xml version="1.0" encoding="UTF-8" standalone="no"?>
<!-- Created with Inkscape (http://www.inkscape.org/) -->

<svg
   width="109.45482mm"
   height="13.460679mm"
   viewBox="0 0 109.45482 13.460679"
   version="1.1"
   id="svg1"
   xmlns:xlink="http://www.w3.org/1999/xlink"
   xmlns="http://www.w3.org/2000/svg"
   xmlns:svg="http://www.w3.org/2000/svg">
  <defs
     id="defs1">
    <linearGradient
       id="linearGradient9">
      <stop
         style="stop-color:#00b0ff;stop-opacity:1;"
         offset="0"
         id="stop10" />
      <stop
         style="stop-color:#0d1900;stop-opacity:1;"
         offset="1"
         id="stop11" />
    </linearGradient>
    <linearGradient
       xlink:href="#linearGradient9"
       id="linearGradient11"
       x1="32.867939"
       y1="66.106567"
       x2="142.32254"
       y2="66.106567"
       gradientUnits="userSpaceOnUse" />
  </defs>
  <g
     id="layer1"
     transform="translate(-32.867761,-59.376219)">
    <g
       id="g4">
      <g
         id="text2"
         style="font-size:16.9333px;fill:url(#linearGradient11);stroke-width:0.265"
         aria-label="&lt;Thabo/Code&gt;">
        <path
           id="path11"
           style="font-family:Consolas;-inkscape-font-specification:Consolas;fill:#fff696;fill-opacity:1"
           d="m 51.677983,59.376221 v 11.683008 h 1.438671 v -5.506641 c 0.28112,-0.330728 0.529167,-0.606338 0.744141,-0.826823 0.214973,-0.220486 0.413412,-0.39412 0.595313,-0.520898 0.181899,-0.132294 0.355534,-0.223245 0.520898,-0.272852 0.170877,-0.05512 0.352779,-0.08268 0.545703,-0.08268 0.446484,0 0.788239,0.159853 1.025261,0.479557 0.242532,0.314192 0.363802,0.790996 0.363802,1.430404 v 5.299935 h 1.438672 V 65.64354 c 0,-1.014232 -0.226001,-1.772158 -0.677995,-2.273763 -0.451996,-0.507115 -1.09141,-0.760677 -1.918229,-0.760677 -0.242534,0 -0.476802,0.02481 -0.7028,0.07441 -0.225997,0.04961 -0.449242,0.132292 -0.669726,0.248047 -0.214974,0.115755 -0.432705,0.26734 -0.653191,0.454753 -0.214972,0.1819 -0.43546,0.4079 -0.661458,0.677995 l 0.04961,-1.306381 v -3.381705 z m 18.620052,0 v 11.195182 c 0.501603,0.203949 1.008725,0.352778 1.521354,0.446484 0.512627,0.09371 1.014237,0.14056 1.504818,0.14056 0.628383,0 1.193382,-0.09922 1.694987,-0.297656 0.501603,-0.203949 0.926042,-0.493339 1.273307,-0.868164 0.352775,-0.380338 0.622873,-0.840606 0.810286,-1.380794 0.192925,-0.545702 0.289388,-1.163066 0.289388,-1.852084 0,-0.628382 -0.06063,-1.196138 -0.181901,-1.703255 -0.121266,-0.512627 -0.303168,-0.948091 -0.545703,-1.30638 -0.242534,-0.363801 -0.542948,-0.644923 -0.901237,-0.843359 -0.358288,-0.198438 -0.77446,-0.297657 -1.248502,-0.297657 -0.54019,0 -1.047311,0.115756 -1.521355,0.347266 -0.46853,0.225998 -0.909507,0.617363 -1.322916,1.174088 l 0.06615,-1.53789 v -3.216341 z m 23.919987,0 -5.672006,13.460677 h 1.372526 l 5.672006,-13.460677 z m 27.806058,0 v 3.489192 c -0.24805,-0.07166 -0.50161,-0.124023 -0.76068,-0.157096 -0.25356,-0.03307 -0.51263,-0.04961 -0.77721,-0.04961 -0.61185,0 -1.16858,0.09922 -1.67019,0.297656 -0.49609,0.192925 -0.92329,0.479559 -1.28157,0.859896 -0.35278,0.374824 -0.62564,0.83785 -0.81856,1.389062 -0.19292,0.545702 -0.28938,1.171335 -0.28938,1.876888 0,0.617359 0.0606,1.179603 0.1819,1.686719 0.12126,0.507117 0.30041,0.94258 0.53743,1.30638 0.24253,0.358289 0.54295,0.636655 0.90124,0.835091 0.3638,0.198438 0.78272,0.297657 1.25677,0.297657 0.5457,0 1.05282,-0.140561 1.52135,-0.42168 0.46854,-0.281119 0.904,-0.713827 1.30638,-1.298112 l 0.0496,1.570964 h 1.28985 V 59.376221 Z m -19.52956,0.74414 c -0.73863,0 -1.40561,0.132293 -2.00091,0.396875 -0.595317,0.264583 -1.102434,0.642168 -1.521357,1.132748 -0.418921,0.485066 -0.741386,1.077629 -0.967382,1.777669 -0.225998,0.700041 -0.338998,1.482773 -0.338998,2.348177 0,1.78593 0.407903,3.136419 1.223698,4.051432 0.821309,0.909502 1.995409,1.364258 3.522269,1.364258 0.94808,0 1.85485,-0.179146 2.72024,-0.537435 v -1.389062 c -0.39136,0.192924 -0.79926,0.34451 -1.22369,0.454752 -0.42444,0.104731 -0.86817,0.157097 -1.33119,0.157097 -1.09692,0 -1.92926,-0.355537 -2.497,-1.066602 -0.56776,-0.711064 -0.851631,-1.76665 -0.851631,-3.166732 0,-0.666967 0.07717,-1.259528 0.23151,-1.777669 0.15434,-0.523652 0.374823,-0.964628 0.661461,-1.322917 0.28662,-0.363799 0.63389,-0.63941 1.04179,-0.826822 0.41342,-0.192925 0.87369,-0.289388 1.3808,-0.289388 0.49609,0 0.9536,0.05788 1.37252,0.173632 0.41892,0.110244 0.82407,0.272853 1.21543,0.487826 v -1.44694 c -0.39687,-0.176389 -0.81028,-0.305925 -1.24023,-0.388607 -0.42995,-0.08819 -0.89572,-0.132292 -1.39733,-0.132292 z m -60.738412,0.132292 v 1.256771 h 3.199804 v 9.549805 h 1.488282 v -9.549805 h 3.199804 v -1.256771 z m -3.332097,1.661914 -5.55625,4.638477 5.55625,4.638476 0.901237,-0.909505 -4.506185,-3.745508 4.506185,-3.704167 z m 98.342319,0 -0.89297,0.917773 4.50619,3.73724 -4.50619,3.712435 0.89297,0.909505 5.55625,-4.638476 z m -72.396616,0.694531 c -0.275606,0 -0.548461,0.01654 -0.818554,0.04961 -0.270095,0.02756 -0.529167,0.06615 -0.777214,0.115755 -0.248046,0.04961 -0.48507,0.107486 -0.711068,0.173633 -0.220484,0.06063 -0.42168,0.124022 -0.60358,0.190169 v 1.298112 c 0.485066,-0.192925 0.953603,-0.341755 1.405599,-0.446484 0.457506,-0.104731 0.920532,-0.157097 1.389062,-0.157097 0.64492,0 1.12448,0.14883 1.438672,0.446485 0.314192,0.292142 0.471289,0.683509 0.471289,1.174088 v 0.727604 h -1.719792 c -1.212668,0 -2.13045,0.237024 -2.75332,0.711068 -0.617358,0.468532 -0.926042,1.118971 -0.926042,1.951302 0,0.33624 0.04961,0.647679 0.148829,0.93431 0.104729,0.286631 0.264584,0.537436 0.479557,0.752409 0.220485,0.209461 0.498851,0.374826 0.835091,0.496094 0.33624,0.121266 0.741385,0.181901 1.21543,0.181901 0.512628,0 1.000458,-0.09922 1.463476,-0.297657 0.468532,-0.198436 0.9288,-0.520901 1.380795,-0.967382 l 0.03307,1.116211 h 1.289844 v -5.721615 c 0,-0.46302 -0.07441,-0.865409 -0.223242,-1.207162 -0.148827,-0.341752 -0.363803,-0.62563 -0.644922,-0.851627 -0.275607,-0.225998 -0.614606,-0.39412 -1.016992,-0.504362 -0.402386,-0.110243 -0.854385,-0.165365 -1.35599,-0.165365 z m 18.653125,0 c -0.62287,0 -1.179602,0.107487 -1.670182,0.322461 -0.490579,0.209461 -0.90675,0.507119 -1.248503,0.892969 -0.341751,0.380337 -0.603581,0.83785 -0.785481,1.372526 -0.181901,0.529165 -0.272852,1.116213 -0.272852,1.761133 0,0.689016 0.08544,1.298115 0.256315,1.827278 0.176388,0.529166 0.427193,0.972897 0.752409,1.331185 0.330728,0.358289 0.730363,0.631143 1.198893,0.818555 0.474044,0.181901 1.008726,0.272852 1.604037,0.272852 0.62287,0 1.179603,-0.104732 1.670182,-0.314193 0.49058,-0.214974 0.90675,-0.512632 1.248503,-0.892969 0.341752,-0.385848 0.603582,-0.846118 0.785481,-1.380794 0.181901,-0.54019 0.272852,-1.13275 0.272852,-1.777669 0,-0.683505 -0.0882,-1.289846 -0.264583,-1.819011 -0.170877,-0.529164 -0.421682,-0.970141 -0.752409,-1.322916 -0.325216,-0.358289 -0.724851,-0.628386 -1.198893,-0.810287 -0.468533,-0.187413 -1.000458,-0.28112 -1.595769,-0.28112 z m 27.930081,0 c -0.62287,0 -1.17961,0.107487 -1.67018,0.322461 -0.49058,0.209461 -0.90675,0.507119 -1.24851,0.892969 -0.34174,0.380337 -0.60357,0.83785 -0.78548,1.372526 -0.1819,0.529165 -0.27285,1.116213 -0.27285,1.761133 0,0.689016 0.0854,1.298115 0.25631,1.827278 0.17639,0.529166 0.42719,0.972897 0.75241,1.331185 0.33073,0.358289 0.73036,0.631143 1.1989,0.818555 0.47404,0.181901 1.00872,0.272852 1.60403,0.272852 0.62288,0 1.17961,-0.104732 1.67019,-0.314193 0.49056,-0.214974 0.90674,-0.512632 1.2485,-0.892969 0.34175,-0.385848 0.60358,-0.846118 0.78548,-1.380794 0.1819,-0.54019 0.27285,-1.13275 0.27285,-1.777669 0,-0.683505 -0.0882,-1.289846 -0.26458,-1.819011 -0.17088,-0.529164 -0.42168,-0.970141 -0.75241,-1.322916 -0.32521,-0.358289 -0.72485,-0.628386 -1.19889,-0.810287 -0.46854,-0.187413 -1.00046,-0.28112 -1.59577,-0.28112 z m 18.62057,0 c -0.59532,0 -1.12725,0.115756 -1.59577,0.347266 -0.46853,0.23151 -0.86541,0.545704 -1.19063,0.942578 -0.3197,0.391362 -0.56499,0.848874 -0.73587,1.372526 -0.16536,0.518141 -0.24805,1.06936 -0.24805,1.653646 0,0.67248 0.0772,1.276066 0.23151,1.810742 0.15985,0.529166 0.40239,0.97841 0.72761,1.347721 0.33072,0.363801 0.7524,0.642167 1.26504,0.835092 0.51262,0.192924 1.12449,0.289388 1.83554,0.289388 0.52917,0 1.03905,-0.03583 1.52963,-0.107487 0.49609,-0.06615 0.93932,-0.154341 1.33066,-0.264584 V 69.65363 c -0.17637,0.04961 -0.36879,0.09646 -0.57825,0.140559 -0.20396,0.03858 -0.41893,0.07441 -0.64493,0.107487 -0.226,0.03307 -0.46026,0.06064 -0.7028,0.08268 -0.24253,0.01654 -0.48558,0.0248 -0.72812,0.0248 -0.89296,0 -1.57596,-0.226 -2.05,-0.677994 -0.47405,-0.457507 -0.71107,-1.110703 -0.71107,-1.959571 h 5.82859 c 0.0112,-0.121267 0.0195,-0.250804 0.0248,-0.388606 0.005,-0.137804 0.008,-0.308682 0.008,-0.512631 0,-0.589797 -0.0794,-1.121724 -0.23926,-1.595768 -0.15434,-0.479555 -0.38585,-0.884701 -0.69453,-1.21543 -0.30318,-0.336239 -0.678,-0.595313 -1.12448,-0.777213 -0.44649,-0.181901 -0.95912,-0.272852 -1.53789,-0.272852 z m -0.0667,1.149284 c 0.3638,0 0.68351,0.06339 0.95912,0.190169 0.2756,0.121268 0.50436,0.292146 0.68626,0.512631 0.18741,0.220484 0.32522,0.48507 0.41341,0.79375 0.0882,0.303166 0.12402,0.63941 0.10749,1.008724 h -4.36563 c 0.0276,-0.369314 0.0992,-0.708313 0.21498,-1.016993 0.11576,-0.308678 0.26734,-0.573264 0.45475,-0.79375 0.18741,-0.220484 0.41066,-0.391363 0.66973,-0.51263 0.25907,-0.121267 0.5457,-0.181901 0.85989,-0.181901 z m -46.566663,0.07441 c 0.369314,0 0.702801,0.06615 1.000456,0.198438 0.303166,0.126779 0.559484,0.319705 0.768945,0.578776 0.209461,0.253558 0.369316,0.573266 0.479557,0.959114 0.115756,0.380337 0.173633,0.826826 0.173633,1.339453 0,0.413411 -0.04685,0.807533 -0.14056,1.182357 -0.08819,0.369313 -0.23151,0.694533 -0.429948,0.975651 -0.192923,0.281119 -0.44373,0.507119 -0.752408,0.677995 -0.303168,0.165365 -0.669728,0.248047 -1.099675,0.248047 -0.374825,0 -0.711068,-0.06339 -1.008724,-0.190169 -0.297655,-0.132292 -0.551216,-0.325219 -0.760677,-0.578776 -0.209461,-0.259071 -0.372071,-0.581535 -0.487825,-0.967383 -0.110243,-0.38585 -0.165365,-0.835093 -0.165365,-1.347722 0,-0.407897 0.0441,-0.796507 0.132292,-1.16582 0.0937,-0.374824 0.237023,-0.7028 0.429948,-0.983919 0.198436,-0.281119 0.449242,-0.504363 0.752408,-0.669727 0.30868,-0.170876 0.677997,-0.256315 1.107943,-0.256315 z m 27.930083,0 c 0.3693,0 0.70279,0.06615 1.00045,0.198438 0.30317,0.126779 0.55949,0.319705 0.76895,0.578776 0.20946,0.253558 0.36931,0.573266 0.47955,0.959114 0.11576,0.380337 0.17364,0.826826 0.17364,1.339453 0,0.413411 -0.0469,0.807533 -0.14056,1.182357 -0.0882,0.369313 -0.23151,0.694533 -0.42995,0.975651 -0.19293,0.281119 -0.44373,0.507119 -0.75241,0.677995 -0.30317,0.165365 -0.66974,0.248047 -1.09967,0.248047 -0.37483,0 -0.71108,-0.06339 -1.00873,-0.190169 -0.29765,-0.132292 -0.55121,-0.325219 -0.76068,-0.578776 -0.20946,-0.259071 -0.37207,-0.581535 -0.48782,-0.967383 -0.11024,-0.38585 -0.16537,-0.835093 -0.16537,-1.347722 0,-0.407897 0.0441,-0.796507 0.1323,-1.16582 0.0937,-0.374824 0.23702,-0.7028 0.42994,-0.983919 0.19844,-0.281119 0.44925,-0.504363 0.75241,-0.669727 0.30868,-0.170876 0.678,-0.256315 1.10795,-0.256315 z m 9.51673,0.01654 c 0.28112,0 0.56499,0.03032 0.85162,0.09095 0.28664,0.05512 0.54847,0.137805 0.78549,0.248047 v 3.852995 c -0.44649,0.639407 -0.87369,1.121724 -1.28158,1.44694 -0.40239,0.325216 -0.78548,0.487825 -1.14928,0.487825 -0.54019,0 -0.95912,-0.245292 -1.25677,-0.735872 -0.29215,-0.496091 -0.43822,-1.24575 -0.43822,-2.248958 0,-1.080377 0.21773,-1.874134 0.65319,-2.38125 0.44097,-0.507117 1.05283,-0.760677 1.83555,-0.760677 z m -46.161526,0.01654 c 0.297654,0 0.553972,0.07441 0.768945,0.223242 0.214974,0.143316 0.391363,0.344511 0.529167,0.603581 0.137802,0.25907 0.237022,0.570509 0.297656,0.93431 0.06615,0.363801 0.09922,0.763435 0.09922,1.198893 0,0.600823 -0.0689,1.105189 -0.206706,1.513086 -0.132291,0.402386 -0.314195,0.727605 -0.545703,0.975651 -0.225998,0.242534 -0.490584,0.416168 -0.79375,0.520899 -0.297655,0.10473 -0.611851,0.157096 -0.942578,0.157096 -0.264583,0 -0.542949,-0.03032 -0.835092,-0.09095 -0.292142,-0.06614 -0.578778,-0.15434 -0.859895,-0.264583 v -4.026628 c 0.253556,-0.330727 0.490581,-0.606338 0.711067,-0.826822 0.225998,-0.225998 0.438217,-0.405144 0.636654,-0.537435 0.203949,-0.137806 0.399632,-0.234268 0.587044,-0.289388 0.187413,-0.06063 0.372071,-0.09095 0.553972,-0.09095 z m -9.888803,3.414779 h 1.827279 v 1.471745 c -0.474043,0.435457 -0.926044,0.755165 -1.355989,0.959114 -0.424435,0.198437 -0.80202,0.297656 -1.132748,0.297656 -0.253558,0 -0.468533,-0.03307 -0.644922,-0.09922 -0.176388,-0.06615 -0.319705,-0.154341 -0.429948,-0.264584 -0.110245,-0.115755 -0.190172,-0.245292 -0.239778,-0.388606 -0.04961,-0.148828 -0.07441,-0.303169 -0.07441,-0.463021 0,-0.23151 0.03858,-0.438218 0.115755,-0.620117 0.08268,-0.187414 0.206706,-0.347267 0.37207,-0.479558 0.165365,-0.132291 0.377583,-0.234266 0.636654,-0.305924 0.25907,-0.07166 0.567753,-0.107487 0.926041,-0.107487 z" />
      </g>
    </g>
  </g>
</svg>
